<?xml version="1.0" encoding="UTF-8"?>
<svg id="WiLI" xmlns="http://www.w3.org/2000/svg" viewBox="0 0 1920 1080">
  <defs>
    <style>
      .cls-1 {
        fill: none;
      }

      .cls-1, .cls-2 {
        stroke: #000;
        stroke-miterlimit: 10;
      }

      .cls-3 {
        stroke-width: 0px;
      }
    </style>
  </defs>
  <rect class="cls-2" x="769.75" y="573.9" width="77.04" height="245.11" rx="36.92" ry="36.92" transform="translate(456.52 -310.83) rotate(30)"/>
  <path class="cls-2" d="M958.31,271.65c-91.08,0-164.92,73.83-164.92,164.92s73.84,164.92,164.92,164.92,164.92-73.84,164.92-164.92-73.83-164.92-164.92-164.92ZM958.31,563.53c-70.11,0-126.96-56.84-126.96-126.96s56.84-126.96,126.96-126.96,126.96,56.84,126.96,126.96-56.84,126.96-126.96,126.96Z"/>
  <circle class="cls-1" cx="958.31" cy="436.57" r="126.96" transform="translate(-28.02 805.5) rotate(-45)"/>
  <circle class="cls-2" cx="1035.3" cy="383.84" r="18.13"/>
  <path class="cls-2" d="M992.53,542.64s-.01-.01-.01,0c-.26.09-.54.18-.81.26-.19.06-.39.12-.58.17-.1.03-.21.06-.32.09-1.44.37-2.97.57-4.53.57-8.75,0-16.04-6.19-17.76-14.43-.24-1.2-.38-2.44-.38-3.71,0-8.12,5.34-14.99,12.7-17.3.02,0,.03,0,.04-.01,34.55-10.87,55.71-44.38,52.28-79.06-.06-.61-.13-1.23-.2-1.85,0-.03-.01-.05-.01-.08-.01-.31-.02-.62-.02-.93,0-8.75,6.19-16.04,14.42-17.76,1.2-.24,2.44-.38,3.71-.38,9.26,0,16.89,6.93,18,15.88l.05.4.2,1.54v.11c4.85,50.98-26.15,100.17-76.78,116.49Z"/>
  <g>
    <path class="cls-3" d="M678.06,271.65h122.51c-103.14,178.66-206.31,357.32-309.45,535.99h-122.51v-323.79c-62.32,107.93-124.63,215.85-186.94,323.79H59.17V271.65h122.51v323.79c62.32-107.93,124.63-215.85,186.94-323.79h122.51v323.79c62.32-107.93,124.63-215.85,186.94-323.79Z"/>
    <path class="cls-1" d="M800.57,271.65c-103.14,178.66-206.31,357.32-309.45,535.99h-122.51v-323.79c-62.32,107.93-124.63,215.85-186.94,323.79H59.17V271.65h122.51v323.79c62.32-107.93,124.63-215.85,186.94-323.79h122.51v323.79c62.32-107.93,124.63-215.85,186.94-323.79h122.51Z"/>
  </g>
  <g>
    <path class="cls-3" d="M1428.86,271.65c-40.83,70.73-81.67,141.46-122.51,212.19-38.74,67.09-77.47,134.19-116.21,201.29h238.72c-23.57,40.83-47.16,81.67-70.73,122.51h-361.24c23.58-40.84,47.16-81.68,70.74-122.51,79.57-137.83,159.15-275.66,238.72-413.48h122.51Z"/>
    <path class="cls-1" d="M1428.86,685.13c-23.57,40.83-47.16,81.67-70.73,122.51h-361.24c23.58-40.84,47.16-81.68,70.74-122.51,79.57-137.83,159.15-275.66,238.72-413.48h122.51c-40.83,70.73-81.67,141.46-122.51,212.19-38.74,67.09-77.47,134.19-116.21,201.29h238.72Z"/>
  </g>
  <g>
    <path class="cls-3" d="M1738.32,271.65h122.51c-103.15,178.65-206.29,357.32-309.46,535.99h-122.51c5.57-9.63,11.13-19.26,16.69-28.9,97.6-169.03,195.18-338.07,292.77-507.09Z"/>
    <path class="cls-1" d="M1860.83,271.65c-103.15,178.65-206.29,357.32-309.46,535.99h-122.51c5.57-9.63,11.13-19.26,16.69-28.9,97.6-169.03,195.18-338.07,292.77-507.09h122.51Z"/>
  </g>
</svg>